<svg width="1776" height="1671" viewBox="0 0 1776 1671" fill="none" xmlns="http://www.w3.org/2000/svg">
<path d="M1132.5 1012H717.5L384 1269.57V1012.5H142.5C44.5 991.3 6.66667 889 0 840.5V168C10.8 40.8 119.167 3 172 0H1117.5C1207.9 10.8 1258.83 97.1667 1273 139V861C1255.4 951 1172 999.167 1132.5 1012Z" fill="#2F89F3"/>
<path d="M503.514 904H175.014C144.214 904 128.181 874.667 124.014 860V180C123.214 159.6 157.014 142.167 174.014 136H1106.01C1131.61 141.6 1145.35 170.667 1149.01 184.5V856C1146.61 888 1115.01 901.333 1099.51 904H677.014L503.514 1032V904Z" fill="white"/>
<path d="M1619 391H1393L1395 878.5C1379 1051.7 1205.67 1141.67 1121 1165H743L528 1334C571.6 1388.8 618.833 1405.83 637 1407.5H1049.5L1395 1671V1407.5H1638.5C1728.9 1388.3 1767.5 1284.83 1775.5 1235.5V568.5C1768.3 452.9 1668.17 402 1619 391Z" fill="#2F89F3"/>
</svg>
