<svg
  width="26"
  height="25"
  viewBox="0 0 26 25"
  fill="none"
  xmlns="http://www.w3.org/2000/svg"
>
  <path
    d="M23.0607 0H2.94066C1.31884 0 0 1.31841 0 2.94213V21.4337C0 23.0555 1.31884 24.3725 2.94066 24.3725H23.0606C24.6825 24.3725 25.9999 23.0555 25.9999 21.4337V2.94213C26 1.31841 24.6825 0 23.0607 0ZM16.8129 4.37552C18.3813 4.37552 19.6532 5.64753 19.6532 7.21582C19.6532 8.78411 18.3812 10.0561 16.8129 10.0561C15.2441 10.0561 13.9726 8.78411 13.9726 7.21582C13.9726 5.64753 15.2441 4.37552 16.8129 4.37552ZM22.1385 21.6542H12.9997H4.26811C3.48367 21.6542 3.13431 21.0867 3.48793 20.3865L8.36242 10.7317C8.71561 10.0316 9.38874 9.96909 9.86543 10.592L14.7669 16.9974C15.2436 17.6204 16.0768 17.6734 16.6282 17.1153L17.8273 15.9011C18.3783 15.3429 19.1902 15.412 19.6399 16.0544L22.7449 20.4896C23.1937 21.133 22.923 21.6542 22.1385 21.6542Z"
    fill="white"
  />
</svg>
