<svg width="39" height="37" viewBox="0 0 39 37" fill="none" xmlns="http://www.w3.org/2000/svg">
<path d="M19.9014 0C12.0138 0 5.59641 6.22448 5.59641 13.875C5.59641 21.0384 17.3416 34.8902 18.6815 36.4465C18.9835 36.7973 19.4301 37 19.9014 37C20.3726 37 20.8193 36.7973 21.1212 36.4465C22.4611 34.8902 34.2063 21.0384 34.2063 13.875C34.2063 6.22448 27.7889 0 19.9014 0ZM19.9014 33.0132C15.9452 28.1817 8.77528 18.4722 8.77528 13.875C8.77528 7.92417 13.7661 3.08333 19.9014 3.08333C26.0366 3.08333 31.0274 7.92417 31.0274 13.875C31.0274 18.4722 23.8575 28.1817 19.9014 33.0132Z" fill="#238CEE"/>
<path d="M19.9014 6.16663C15.5193 6.16663 11.9542 9.62458 11.9542 13.875C11.9542 18.1253 15.5193 21.5833 19.9014 21.5833C22.0614 21.5833 24.0816 20.757 25.59 19.2569C26.2027 18.6472 26.19 17.6713 25.5621 17.077C24.9335 16.4827 23.9274 16.4942 23.3147 17.104C22.4095 18.0043 21.1975 18.5 19.9014 18.5C17.2716 18.5 15.133 16.4256 15.133 13.875C15.133 11.3243 17.2716 9.24996 19.9014 9.24996C22.5311 9.24996 24.6697 11.3243 24.6697 13.875C24.6697 14.726 25.3817 15.4166 26.2591 15.4166C27.1365 15.4166 27.8485 14.726 27.8485 13.875C27.8485 9.62458 24.2834 6.16663 19.9014 6.16663Z" fill="#238CEE"/>
</svg>
