<?xml version="1.0" standalone="no"?>
<!DOCTYPE svg PUBLIC "-//W3C//DTD SVG 20010904//EN"
 "http://www.w3.org/TR/2001/REC-SVG-20010904/DTD/svg10.dtd">
<svg version="1.0" xmlns="http://www.w3.org/2000/svg"
 width="200.000000pt" height="134.000000pt" viewBox="0 0 200.000000 134.000000"
 preserveAspectRatio="xMidYMid meet">

<g transform="translate(0.000000,134.000000) scale(0.100000,-0.100000)"
fill="#000000" stroke="none">
<path d="M330 793 c-31 -21 -40 -33 -40 -55 0 -25 36 -23 43 2 4 15 14 20 40
20 40 0 47 -11 47 -71 0 -39 1 -40 33 -37 27 3 33 7 35 32 5 41 -16 83 -53
106 -40 24 -73 25 -105 3z"/>
<path d="M690 752 c-34 -5 -60 -30 -60 -57 0 -25 20 -45 68 -69 32 -16 44 -46
18 -46 -7 0 -28 5 -45 11 -44 15 -61 -1 -31 -29 36 -34 120 -39 158 -9 6 5 12
24 12 42 0 29 -6 37 -50 64 -72 44 -60 83 15 49 31 -14 45 -3 23 18 -18 18
-72 31 -108 26z"/>
<path d="M863 734 c-4 -10 0 -20 11 -26 15 -8 14 -11 -6 -28 -23 -19 -23 -19
-2 -20 50 0 74 81 26 88 -14 2 -25 -3 -29 -14z"/>
<path d="M1152 648 c3 -102 3 -103 28 -103 22 0 26 5 30 45 3 31 10 45 20 45
11 0 16 -13 18 -47 3 -46 5 -48 33 -48 l29 0 0 65 c0 74 -12 87 -66 75 l-34
-8 0 39 c0 37 -2 39 -30 39 l-31 0 3 -102z"/>
<path d="M1588 729 c-10 -5 -18 -18 -18 -27 0 -10 -5 -23 -12 -30 -9 -9 -9
-15 0 -24 7 -7 12 -25 12 -41 0 -46 17 -67 53 -67 37 0 57 15 57 42 0 21 -11
23 -28 6 -9 -9 -12 -5 -12 19 0 23 6 33 20 38 25 8 26 25 1 32 -12 3 -21 15
-23 31 -3 29 -23 37 -50 21z"/>
<path d="M360 674 l0 -56 -32 7 -33 6 33 -28 c29 -25 32 -34 32 -80 0 -57 -9
-69 -40 -53 -13 7 -20 7 -20 1 0 -6 9 -15 20 -21 29 -16 44 -48 29 -66 -6 -8
-20 -14 -30 -14 -11 0 -19 -4 -19 -10 0 -6 32 -10 75 -10 76 0 100 13 45 24
-29 5 -30 7 -30 63 0 51 4 61 32 90 18 18 27 33 22 33 -6 0 -15 -5 -21 -11
-21 -21 -33 2 -33 60 0 69 -9 121 -21 121 -5 0 -9 -25 -9 -56z"/>
<path d="M232 683 c-7 -3 -18 -16 -23 -30 -14 -37 12 -73 52 -73 26 0 29 2 19
14 -19 23 -8 61 18 64 13 2 21 9 19 15 -4 13 -63 20 -85 10z"/>
<path d="M990 678 c-32 -17 -47 -59 -34 -95 7 -20 21 -32 51 -43 40 -13 44
-13 70 6 41 31 40 43 -4 37 -28 -4 -43 -1 -52 10 -17 21 -10 61 10 65 13 2 15
-3 11 -23 -4 -24 -2 -26 23 -23 37 4 55 32 34 53 -21 22 -79 28 -109 13z"/>
<path d="M1371 671 c-48 -48 -12 -151 47 -136 15 4 43 8 62 9 l35 1 0 65 0 65
-35 1 c-19 1 -47 5 -62 9 -20 5 -31 2 -47 -14z m79 -61 c0 -27 -4 -40 -14 -40
-16 0 -26 32 -19 60 10 37 33 23 33 -20z"/>
<path d="M453 613 c-21 -8 -15 -33 7 -33 15 0 20 -7 20 -28 0 -15 -5 -33 -12
-40 -9 -9 -4 -12 23 -12 44 0 59 15 59 56 0 48 -49 77 -97 57z"/>
<path d="M232 530 c-43 -18 -48 -86 -8 -112 16 -11 66 -10 66 2 0 6 -4 10 -9
10 -13 0 -22 30 -16 51 4 11 15 19 26 19 25 0 25 16 0 30 -23 12 -28 12 -59 0z"/>
</g>
</svg>
