<svg viewBox="0 0 48 48" fill="none" xmlns="http://www.w3.org/2000/svg">
<g id="Group">
<g id="key3">
<path id="Vector" d="M10.2574 7.8788H1.41175C0.631966 7.8788 0 7.24642 0 6.46705C0 5.68768 0.631966 5.0553 1.41175 5.0553H10.2574C11.0372 5.0553 11.6691 5.68768 11.6691 6.46705C11.6691 7.24642 11.0372 7.8788 10.2574 7.8788Z" fill="#238CEE"/>
<path id="Vector_2" d="M15.3122 12.9332C11.7464 12.9332 8.84564 10.0324 8.84564 6.46696C8.84564 2.90078 11.7464 0 15.3122 0C18.8779 0 21.7787 2.90078 21.7787 6.46696C21.7787 10.0325 18.8779 12.9332 15.3122 12.9332ZM15.3122 2.82361C13.3034 2.82361 11.6691 4.45814 11.6691 6.46696C11.6691 8.47577 13.3034 10.1096 15.3122 10.1096C17.321 10.1096 18.9552 8.47577 18.9552 6.46696C18.9552 4.45814 17.321 2.82361 15.3122 2.82361Z" fill="#238CEE"/>
</g>
<path id="Vector_3" d="M46.5883 7.8788H25.4882C24.7084 7.8788 24.0764 7.24642 24.0764 6.46705C24.0764 5.68768 24.7084 5.0553 25.4882 5.0553H46.5882C47.3679 5.0553 47.9999 5.68768 47.9999 6.46705C47.9999 7.24642 47.368 7.8788 46.5883 7.8788Z" fill="#238CEE"/>
<path id="Vector_4" d="M24.0916 24.9383H1.41175C0.631966 24.9383 0 24.3059 0 23.5266C0 22.7472 0.631966 22.1148 1.41175 22.1148H24.0916C24.8714 22.1148 25.5033 22.7472 25.5033 23.5266C25.5033 24.3059 24.8714 24.9383 24.0916 24.9383Z" fill="#238CEE"/>
<g id="key2">
<path id="Vector_5" d="M34.2673 29.9928C30.7014 29.9928 27.8008 27.092 27.8008 23.5266C27.8008 19.9611 30.7015 17.0604 34.2673 17.0604C37.8331 17.0604 40.7338 19.9611 40.7338 23.5266C40.7338 27.092 37.8332 29.9928 34.2673 29.9928ZM34.2673 19.884C32.2585 19.884 30.6243 21.5178 30.6243 23.5266C30.6243 25.5354 32.2585 27.1692 34.2673 27.1692C36.2761 27.1692 37.9103 25.5354 37.9103 23.5266C37.9103 21.5178 36.2761 19.884 34.2673 19.884Z" fill="#238CEE"/>
<path id="Vector_6" d="M46.5882 24.9383H39.322C38.5423 24.9383 37.9103 24.3059 37.9103 23.5266C37.9103 22.7472 38.5423 22.1148 39.322 22.1148H46.5882C47.368 22.1148 48 22.7472 48 23.5266C48 24.3059 47.368 24.9383 46.5882 24.9383Z" fill="#238CEE"/>
</g>
<path id="Vector_7" d="M46.5882 41.9979H23.9084C23.1286 41.9979 22.4967 41.3656 22.4967 40.5862C22.4967 39.8068 23.1286 39.1744 23.9084 39.1744H46.5882C47.368 39.1744 48 39.8068 48 40.5862C48 41.3656 47.368 41.9979 46.5882 41.9979Z" fill="#238CEE"/>
<g id="key1">
<path id="Vector_8" d="M13.7327 47.0531C10.167 47.0531 7.26617 44.1523 7.26617 40.5861C7.26617 37.0207 10.167 34.1199 13.7327 34.1199C17.2985 34.1199 20.1992 37.0207 20.1992 40.5861C20.1992 44.1523 17.2985 47.0531 13.7327 47.0531ZM13.7327 36.9435C11.7239 36.9435 10.0897 38.5773 10.0897 40.5861C10.0897 42.5949 11.7239 44.2294 13.7327 44.2294C15.7415 44.2294 17.3757 42.5949 17.3757 40.5861C17.3757 38.5773 15.7415 36.9435 13.7327 36.9435Z" fill="#238CEE"/>
<path id="Vector_9" d="M8.67794 41.998H1.41175C0.631966 41.998 0 41.3656 0 40.5861C0 39.8068 0.631966 39.1744 1.41175 39.1744H8.67794C9.45773 39.1744 10.0897 39.8068 10.0897 40.5861C10.0897 41.3656 9.45773 41.998 8.67794 41.998Z" fill="#238CEE"/>
</g>
</g>
</svg>
